<mxfile host="Electron" agent="Mozilla/5.0 (Windows NT 10.0; Win64; x64) AppleWebKit/537.36 (KHTML, like Gecko) draw.io/26.0.7 Chrome/128.0.6613.186 Electron/32.2.5 Safari/537.36" version="26.0.7">
  <diagram name="Page-1" id="M-oF8pu1jjytgpm3w3Z8">
    <mxGraphModel dx="545" dy="375" grid="1" gridSize="10" guides="1" tooltips="1" connect="1" arrows="1" fold="1" page="1" pageScale="1" pageWidth="827" pageHeight="1169" math="1" shadow="0">
      <root>
        <mxCell id="0" />
        <mxCell id="1" parent="0" />
        <mxCell id="lkfFg6GpreBAaiRmlx7V-1" value="" style="ellipse;whiteSpace=wrap;html=1;aspect=fixed;fillColor=none;dashed=1;fontFamily=Times New Roman;fontSize=10;" parent="1" vertex="1">
          <mxGeometry x="360" y="240" width="160" height="160" as="geometry" />
        </mxCell>
        <mxCell id="lkfFg6GpreBAaiRmlx7V-2" value="" style="endArrow=classic;html=1;rounded=0;endFill=1;fontFamily=Times New Roman;fontSize=10;" parent="1" edge="1">
          <mxGeometry width="50" height="50" relative="1" as="geometry">
            <mxPoint x="440" y="480" as="sourcePoint" />
            <mxPoint x="440" y="160" as="targetPoint" />
          </mxGeometry>
        </mxCell>
        <mxCell id="lkfFg6GpreBAaiRmlx7V-3" value="" style="endArrow=classic;html=1;rounded=0;fontFamily=Times New Roman;fontSize=10;" parent="1" edge="1">
          <mxGeometry width="50" height="50" relative="1" as="geometry">
            <mxPoint x="280" y="320" as="sourcePoint" />
            <mxPoint x="600" y="320" as="targetPoint" />
          </mxGeometry>
        </mxCell>
        <mxCell id="lkfFg6GpreBAaiRmlx7V-4" value="" style="endArrow=none;html=1;rounded=0;fontFamily=Times New Roman;fontSize=10;" parent="1" edge="1">
          <mxGeometry width="50" height="50" relative="1" as="geometry">
            <mxPoint x="440" y="320" as="sourcePoint" />
            <mxPoint x="590" y="170" as="targetPoint" />
          </mxGeometry>
        </mxCell>
        <mxCell id="lkfFg6GpreBAaiRmlx7V-5" value="" style="verticalLabelPosition=bottom;verticalAlign=top;html=1;shape=mxgraph.basic.arc;startAngle=0.37382109605732927;endAngle=0.4983247466822763;rotation=-90;fontFamily=Times New Roman;fontSize=10;" parent="1" vertex="1">
          <mxGeometry x="316.88" y="193.13" width="247.5" height="253.75" as="geometry" />
        </mxCell>
        <mxCell id="lkfFg6GpreBAaiRmlx7V-8" value="$$\phi_1(t)$$" style="text;html=1;align=center;verticalAlign=middle;whiteSpace=wrap;rounded=0;" parent="1" vertex="1">
          <mxGeometry x="590" y="305.01" width="60" height="30" as="geometry" />
        </mxCell>
        <mxCell id="lkfFg6GpreBAaiRmlx7V-9" value="$$\frac{2\pi}{M}$$" style="rounded=0;whiteSpace=wrap;html=1;strokeColor=none;" parent="1" vertex="1">
          <mxGeometry x="520" y="250" width="70" height="43.12" as="geometry" />
        </mxCell>
        <mxCell id="lkfFg6GpreBAaiRmlx7V-10" value="$$\phi_2(t)$$" style="text;html=1;align=center;verticalAlign=middle;whiteSpace=wrap;rounded=0;" parent="1" vertex="1">
          <mxGeometry x="414" y="130" width="60" height="30" as="geometry" />
        </mxCell>
      </root>
    </mxGraphModel>
  </diagram>
</mxfile>
